<svg xmlns="http://www.w3.org/2000/svg" width="700" height="700"><rect width="175" height="175" fill="#ada397" opacity=".75" class="rects" rx="43.75"/><rect width="175" height="175" y="175" fill="#eca1a6" opacity=".75" class="rects" rx="43.75"/><rect width="175" height="175" y="350" fill="#bdcebe" opacity=".75" class="rects" rx="43.75"/><rect width="175" height="175" y="525" fill="#eca1a6" opacity=".75" class="rects" rx="43.75"/><rect width="175" height="175" x="175" fill="#ada397" opacity=".75" class="rects" rx="43.75"/><rect width="175" height="175" x="175" y="175" fill="#eca1a6" opacity=".75" class="rects" rx="43.75"/><rect width="175" height="175" x="175" y="350" fill="#d6cbd3" opacity=".75" class="rects" rx="43.75"/><rect width="175" height="175" x="175" y="525" fill="#eca1a6" opacity=".75" class="rects" rx="43.75"/><rect width="175" height="175" x="350" fill="#bdcebe" opacity=".75" class="rects" rx="43.75"/><rect width="175" height="175" x="350" y="175" fill="#bdcebe" opacity=".75" class="rects" rx="43.75"/><rect width="175" height="175" x="350" y="350" fill="#bdcebe" opacity=".75" class="rects" rx="43.75"/><rect width="175" height="175" x="350" y="525" fill="#d6cbd3" opacity=".75" class="rects" rx="43.75"/><rect width="175" height="175" x="525" fill="#eca1a6" opacity=".75" class="rects" rx="43.75"/><rect width="175" height="175" x="525" y="175" fill="#bdcebe" opacity=".75" class="rects" rx="43.75"/><rect width="175" height="175" x="525" y="350" fill="#bdcebe" opacity=".75" class="rects" rx="43.75"/><rect width="175" height="175" x="525" y="525" fill="#d6cbd3" opacity=".75" class="rects" rx="43.75"/><rect width="35" height="35" fill="#d6cbd3" opacity=".1" class="rects" rx="11.66666667"/><rect width="35" height="35" y="35" fill="#bdcebe" opacity=".75" class="rects" rx="8.75"/><rect width="35" height="35" y="70" fill="#d6cbd3" opacity=".1" class="rects" rx="11.66666667"/><rect width="35" height="35" y="105" fill="#d6cbd3" opacity=".1" class="rects" rx="11.66666667"/><rect width="35" height="35" y="140" fill="#d6cbd3" opacity=".75" class="rects" rx="8.75"/><rect width="35" height="35" y="175" fill="#bdcebe" opacity=".75" class="rects" rx="8.75"/><rect width="35" height="35" y="210" fill="#bdcebe" opacity=".75" class="rects" rx="8.75"/><rect width="35" height="35" y="245" fill="#bdcebe" opacity=".75" class="rects" rx="8.75"/><rect width="35" height="35" y="280" fill="#ada397" opacity=".75" class="rects" rx="8.75"/><rect width="35" height="35" y="315" fill="#ada397" opacity=".75" class="rects" rx="8.75"/><rect width="35" height="35" y="350" fill="#d6cbd3" opacity=".1" class="rects" rx="11.66666667"/><rect width="35" height="35" y="385" fill="#bdcebe" opacity=".75" class="rects" rx="8.75"/><rect width="35" height="35" y="420" fill="#d6cbd3" opacity=".1" class="rects" rx="11.66666667"/><rect width="35" height="35" y="455" fill="#ada397" opacity=".75" class="rects" rx="8.75"/><rect width="35" height="35" y="490" fill="#ada397" opacity=".75" class="rects" rx="8.75"/><rect width="35" height="35" y="525" fill="#bdcebe" opacity=".75" class="rects" rx="8.75"/><rect width="35" height="35" y="560" fill="#ada397" opacity=".75" class="rects" rx="8.75"/><rect width="35" height="35" y="595" fill="#eca1a6" opacity=".75" class="rects" rx="8.75"/><rect width="35" height="35" y="630" fill="#d6cbd3" opacity=".75" class="rects" rx="8.75"/><rect width="35" height="35" y="665" fill="#d6cbd3" opacity=".1" class="rects" rx="11.66666667"/><rect width="35" height="35" x="35" fill="#d6cbd3" opacity=".1" class="rects" rx="11.66666667"/><rect width="35" height="35" x="35" y="35" fill="#bdcebe" opacity=".75" class="rects" rx="8.75"/><rect width="35" height="35" x="35" y="70" fill="#bdcebe" opacity=".75" class="rects" rx="8.75"/><rect width="35" height="35" x="35" y="105" fill="#d6cbd3" opacity=".1" class="rects" rx="11.66666667"/><rect width="35" height="35" x="35" y="140" fill="#bdcebe" opacity=".75" class="rects" rx="8.75"/><rect width="35" height="35" x="35" y="175" fill="#bdcebe" opacity=".75" class="rects" rx="8.75"/><rect width="35" height="35" x="35" y="210" fill="#d6cbd3" opacity=".1" class="rects" rx="11.66666667"/><rect width="35" height="35" x="35" y="245" fill="#ada397" opacity=".75" class="rects" rx="8.75"/><rect width="35" height="35" x="35" y="280" fill="#bdcebe" opacity=".75" class="rects" rx="8.75"/><rect width="35" height="35" x="35" y="315" fill="#d6cbd3" opacity=".1" class="rects" rx="11.66666667"/><rect width="35" height="35" x="35" y="350" fill="#d6cbd3" opacity=".75" class="rects" rx="8.75"/><rect width="35" height="35" x="35" y="385" fill="#d6cbd3" opacity=".75" class="rects" rx="8.75"/><rect width="35" height="35" x="35" y="420" fill="#d6cbd3" opacity=".1" class="rects" rx="11.66666667"/><rect width="35" height="35" x="35" y="455" fill="#d6cbd3" opacity=".1" class="rects" rx="11.66666667"/><rect width="35" height="35" x="35" y="490" fill="#d6cbd3" opacity=".75" class="rects" rx="8.75"/><rect width="35" height="35" x="35" y="525" fill="#d6cbd3" opacity=".1" class="rects" rx="11.66666667"/><rect width="35" height="35" x="35" y="560" fill="#eca1a6" opacity=".75" class="rects" rx="8.75"/><rect width="35" height="35" x="35" y="595" fill="#ada397" opacity=".75" class="rects" rx="8.75"/><rect width="35" height="35" x="35" y="630" fill="#bdcebe" opacity=".75" class="rects" rx="8.75"/><rect width="35" height="35" x="35" y="665" fill="#eca1a6" opacity=".75" class="rects" rx="8.75"/><rect width="35" height="35" x="70" fill="#bdcebe" opacity=".75" class="rects" rx="8.75"/><rect width="35" height="35" x="70" y="35" fill="#bdcebe" opacity=".75" class="rects" rx="8.75"/><rect width="35" height="35" x="70" y="70" fill="#d6cbd3" opacity=".1" class="rects" rx="11.66666667"/><rect width="35" height="35" x="70" y="105" fill="#bdcebe" opacity=".75" class="rects" rx="8.75"/><rect width="35" height="35" x="70" y="140" fill="#d6cbd3" opacity=".1" class="rects" rx="11.66666667"/><rect width="35" height="35" x="70" y="175" fill="#d6cbd3" opacity=".75" class="rects" rx="8.75"/><rect width="35" height="35" x="70" y="210" fill="#d6cbd3" opacity=".75" class="rects" rx="8.75"/><rect width="35" height="35" x="70" y="245" fill="#d6cbd3" opacity=".1" class="rects" rx="11.66666667"/><rect width="35" height="35" x="70" y="280" fill="#eca1a6" opacity=".75" class="rects" rx="8.75"/><rect width="35" height="35" x="70" y="315" fill="#d6cbd3" opacity=".75" class="rects" rx="8.75"/><rect width="35" height="35" x="70" y="350" fill="#bdcebe" opacity=".75" class="rects" rx="8.75"/><rect width="35" height="35" x="70" y="385" fill="#bdcebe" opacity=".75" class="rects" rx="8.75"/><rect width="35" height="35" x="70" y="420" fill="#d6cbd3" opacity=".1" class="rects" rx="11.66666667"/><rect width="35" height="35" x="70" y="455" fill="#ada397" opacity=".75" class="rects" rx="8.75"/><rect width="35" height="35" x="70" y="490" fill="#d6cbd3" opacity=".75" class="rects" rx="8.75"/><rect width="35" height="35" x="70" y="525" fill="#eca1a6" opacity=".75" class="rects" rx="8.75"/><rect width="35" height="35" x="70" y="560" fill="#d6cbd3" opacity=".75" class="rects" rx="8.75"/><rect width="35" height="35" x="70" y="595" fill="#eca1a6" opacity=".75" class="rects" rx="8.75"/><rect width="35" height="35" x="70" y="630" fill="#bdcebe" opacity=".75" class="rects" rx="8.75"/><rect width="35" height="35" x="70" y="665" fill="#bdcebe" opacity=".75" class="rects" rx="8.75"/><rect width="35" height="35" x="105" fill="#eca1a6" opacity=".75" class="rects" rx="8.75"/><rect width="35" height="35" x="105" y="35" fill="#d6cbd3" opacity=".1" class="rects" rx="11.66666667"/><rect width="35" height="35" x="105" y="70" fill="#d6cbd3" opacity=".1" class="rects" rx="11.66666667"/><rect width="35" height="35" x="105" y="105" fill="#eca1a6" opacity=".75" class="rects" rx="8.75"/><rect width="35" height="35" x="105" y="140" fill="#d6cbd3" opacity=".1" class="rects" rx="11.66666667"/><rect width="35" height="35" x="105" y="175" fill="#ada397" opacity=".75" class="rects" rx="8.75"/><rect width="35" height="35" x="105" y="210" fill="#d6cbd3" opacity=".75" class="rects" rx="8.75"/><rect width="35" height="35" x="105" y="245" fill="#bdcebe" opacity=".75" class="rects" rx="8.75"/><rect width="35" height="35" x="105" y="280" fill="#eca1a6" opacity=".75" class="rects" rx="8.75"/><rect width="35" height="35" x="105" y="315" fill="#ada397" opacity=".75" class="rects" rx="8.75"/><rect width="35" height="35" x="105" y="350" fill="#d6cbd3" opacity=".75" class="rects" rx="8.75"/><rect width="35" height="35" x="105" y="385" fill="#d6cbd3" opacity=".75" class="rects" rx="8.75"/><rect width="35" height="35" x="105" y="420" fill="#d6cbd3" opacity=".1" class="rects" rx="11.66666667"/><rect width="35" height="35" x="105" y="455" fill="#d6cbd3" opacity=".1" class="rects" rx="11.66666667"/><rect width="35" height="35" x="105" y="490" fill="#d6cbd3" opacity=".1" class="rects" rx="11.66666667"/><rect width="35" height="35" x="105" y="525" fill="#d6cbd3" opacity=".75" class="rects" rx="8.75"/><rect width="35" height="35" x="105" y="560" fill="#d6cbd3" opacity=".75" class="rects" rx="8.75"/><rect width="35" height="35" x="105" y="595" fill="#bdcebe" opacity=".75" class="rects" rx="8.75"/><rect width="35" height="35" x="105" y="630" fill="#bdcebe" opacity=".75" class="rects" rx="8.75"/><rect width="35" height="35" x="105" y="665" fill="#d6cbd3" opacity=".75" class="rects" rx="8.75"/><rect width="35" height="35" x="140" fill="#ada397" opacity=".75" class="rects" rx="8.75"/><rect width="35" height="35" x="140" y="35" fill="#d6cbd3" opacity=".75" class="rects" rx="8.75"/><rect width="35" height="35" x="140" y="70" fill="#d6cbd3" opacity=".75" class="rects" rx="8.75"/><rect width="35" height="35" x="140" y="105" fill="#eca1a6" opacity=".75" class="rects" rx="8.75"/><rect width="35" height="35" x="140" y="140" fill="#d6cbd3" opacity=".75" class="rects" rx="8.75"/><rect width="35" height="35" x="140" y="175" fill="#bdcebe" opacity=".75" class="rects" rx="8.75"/><rect width="35" height="35" x="140" y="210" fill="#ada397" opacity=".75" class="rects" rx="8.75"/><rect width="35" height="35" x="140" y="245" fill="#d6cbd3" opacity=".1" class="rects" rx="11.66666667"/><rect width="35" height="35" x="140" y="280" fill="#d6cbd3" opacity=".1" class="rects" rx="11.66666667"/><rect width="35" height="35" x="140" y="315" fill="#eca1a6" opacity=".75" class="rects" rx="8.75"/><rect width="35" height="35" x="140" y="350" fill="#d6cbd3" opacity=".1" class="rects" rx="11.66666667"/><rect width="35" height="35" x="140" y="385" fill="#eca1a6" opacity=".75" class="rects" rx="8.75"/><rect width="35" height="35" x="140" y="420" fill="#d6cbd3" opacity=".75" class="rects" rx="8.75"/><rect width="35" height="35" x="140" y="455" fill="#d6cbd3" opacity=".75" class="rects" rx="8.75"/><rect width="35" height="35" x="140" y="490" fill="#eca1a6" opacity=".75" class="rects" rx="8.75"/><rect width="35" height="35" x="140" y="525" fill="#eca1a6" opacity=".75" class="rects" rx="8.75"/><rect width="35" height="35" x="140" y="560" fill="#bdcebe" opacity=".75" class="rects" rx="8.75"/><rect width="35" height="35" x="140" y="595" fill="#bdcebe" opacity=".75" class="rects" rx="8.75"/><rect width="35" height="35" x="140" y="630" fill="#bdcebe" opacity=".75" class="rects" rx="8.75"/><rect width="35" height="35" x="140" y="665" fill="#bdcebe" opacity=".75" class="rects" rx="8.75"/><rect width="35" height="35" x="175" fill="#d6cbd3" opacity=".75" class="rects" rx="8.75"/><rect width="35" height="35" x="175" y="35" fill="#eca1a6" opacity=".75" class="rects" rx="8.75"/><rect width="35" height="35" x="175" y="70" fill="#d6cbd3" opacity=".1" class="rects" rx="11.66666667"/><rect width="35" height="35" x="175" y="105" fill="#d6cbd3" opacity=".1" class="rects" rx="11.66666667"/><rect width="35" height="35" x="175" y="140" fill="#d6cbd3" opacity=".75" class="rects" rx="8.75"/><rect width="35" height="35" x="175" y="175" fill="#d6cbd3" opacity=".75" class="rects" rx="8.75"/><rect width="35" height="35" x="175" y="210" fill="#d6cbd3" opacity=".75" class="rects" rx="8.75"/><rect width="35" height="35" x="175" y="245" fill="#d6cbd3" opacity=".1" class="rects" rx="11.66666667"/><rect width="35" height="35" x="175" y="280" fill="#ada397" opacity=".75" class="rects" rx="8.75"/><rect width="35" height="35" x="175" y="315" fill="#d6cbd3" opacity=".75" class="rects" rx="8.75"/><rect width="35" height="35" x="175" y="350" fill="#eca1a6" opacity=".75" class="rects" rx="8.75"/><rect width="35" height="35" x="175" y="385" fill="#d6cbd3" opacity=".1" class="rects" rx="11.66666667"/><rect width="35" height="35" x="175" y="420" fill="#d6cbd3" opacity=".1" class="rects" rx="11.66666667"/><rect width="35" height="35" x="175" y="455" fill="#d6cbd3" opacity=".1" class="rects" rx="11.66666667"/><rect width="35" height="35" x="175" y="490" fill="#ada397" opacity=".75" class="rects" rx="8.75"/><rect width="35" height="35" x="175" y="525" fill="#ada397" opacity=".75" class="rects" rx="8.75"/><rect width="35" height="35" x="175" y="560" fill="#ada397" opacity=".75" class="rects" rx="8.75"/><rect width="35" height="35" x="175" y="595" fill="#d6cbd3" opacity=".75" class="rects" rx="8.75"/><rect width="35" height="35" x="175" y="630" fill="#eca1a6" opacity=".75" class="rects" rx="8.75"/><rect width="35" height="35" x="175" y="665" fill="#bdcebe" opacity=".75" class="rects" rx="8.75"/><rect width="35" height="35" x="210" fill="#d6cbd3" opacity=".1" class="rects" rx="11.66666667"/><rect width="35" height="35" x="210" y="35" fill="#eca1a6" opacity=".75" class="rects" rx="8.75"/><rect width="35" height="35" x="210" y="70" fill="#bdcebe" opacity=".75" class="rects" rx="8.75"/><rect width="35" height="35" x="210" y="105" fill="#bdcebe" opacity=".75" class="rects" rx="8.75"/><rect width="35" height="35" x="210" y="140" fill="#d6cbd3" opacity=".1" class="rects" rx="11.66666667"/><rect width="35" height="35" x="210" y="175" fill="#bdcebe" opacity=".75" class="rects" rx="8.75"/><rect width="35" height="35" x="210" y="210" fill="#bdcebe" opacity=".75" class="rects" rx="8.75"/><rect width="35" height="35" x="210" y="245" fill="#d6cbd3" opacity=".75" class="rects" rx="8.75"/><rect width="35" height="35" x="210" y="280" fill="#eca1a6" opacity=".75" class="rects" rx="8.75"/><rect width="35" height="35" x="210" y="315" fill="#bdcebe" opacity=".75" class="rects" rx="8.75"/><rect width="35" height="35" x="210" y="350" fill="#ada397" opacity=".75" class="rects" rx="8.75"/><rect width="35" height="35" x="210" y="385" fill="#d6cbd3" opacity=".1" class="rects" rx="11.66666667"/><rect width="35" height="35" x="210" y="420" fill="#eca1a6" opacity=".75" class="rects" rx="8.75"/><rect width="35" height="35" x="210" y="455" fill="#d6cbd3" opacity=".1" class="rects" rx="11.66666667"/><rect width="35" height="35" x="210" y="490" fill="#bdcebe" opacity=".75" class="rects" rx="8.75"/><rect width="35" height="35" x="210" y="525" fill="#eca1a6" opacity=".75" class="rects" rx="8.75"/><rect width="35" height="35" x="210" y="560" fill="#d6cbd3" opacity=".75" class="rects" rx="8.75"/><rect width="35" height="35" x="210" y="595" fill="#d6cbd3" opacity=".1" class="rects" rx="11.66666667"/><rect width="35" height="35" x="210" y="630" fill="#d6cbd3" opacity=".1" class="rects" rx="11.66666667"/><rect width="35" height="35" x="210" y="665" fill="#d6cbd3" opacity=".75" class="rects" rx="8.75"/><rect width="35" height="35" x="245" fill="#d6cbd3" opacity=".75" class="rects" rx="8.75"/><rect width="35" height="35" x="245" y="35" fill="#ada397" opacity=".75" class="rects" rx="8.75"/><rect width="35" height="35" x="245" y="70" fill="#eca1a6" opacity=".75" class="rects" rx="8.75"/><rect width="35" height="35" x="245" y="105" fill="#d6cbd3" opacity=".75" class="rects" rx="8.75"/><rect width="35" height="35" x="245" y="140" fill="#ada397" opacity=".75" class="rects" rx="8.75"/><rect width="35" height="35" x="245" y="175" fill="#eca1a6" opacity=".75" class="rects" rx="8.75"/><rect width="35" height="35" x="245" y="210" fill="#d6cbd3" opacity=".1" class="rects" rx="11.66666667"/><rect width="35" height="35" x="245" y="245" fill="#d6cbd3" opacity=".1" class="rects" rx="11.66666667"/><rect width="35" height="35" x="245" y="280" fill="#d6cbd3" opacity=".1" class="rects" rx="11.66666667"/><rect width="35" height="35" x="245" y="315" fill="#d6cbd3" opacity=".1" class="rects" rx="11.66666667"/><rect width="35" height="35" x="245" y="350" fill="#eca1a6" opacity=".75" class="rects" rx="8.75"/><rect width="35" height="35" x="245" y="385" fill="#ada397" opacity=".75" class="rects" rx="8.75"/><rect width="35" height="35" x="245" y="420" fill="#d6cbd3" opacity=".1" class="rects" rx="11.66666667"/><rect width="35" height="35" x="245" y="455" fill="#d6cbd3" opacity=".1" class="rects" rx="11.66666667"/><rect width="35" height="35" x="245" y="490" fill="#ada397" opacity=".75" class="rects" rx="8.75"/><rect width="35" height="35" x="245" y="525" fill="#bdcebe" opacity=".75" class="rects" rx="8.75"/><rect width="35" height="35" x="245" y="560" fill="#eca1a6" opacity=".75" class="rects" rx="8.75"/><rect width="35" height="35" x="245" y="595" fill="#ada397" opacity=".75" class="rects" rx="8.75"/><rect width="35" height="35" x="245" y="630" fill="#eca1a6" opacity=".75" class="rects" rx="8.75"/><rect width="35" height="35" x="245" y="665" fill="#d6cbd3" opacity=".1" class="rects" rx="11.66666667"/><rect width="35" height="35" x="280" fill="#d6cbd3" opacity=".1" class="rects" rx="11.66666667"/><rect width="35" height="35" x="280" y="35" fill="#ada397" opacity=".75" class="rects" rx="8.75"/><rect width="35" height="35" x="280" y="70" fill="#eca1a6" opacity=".75" class="rects" rx="8.75"/><rect width="35" height="35" x="280" y="105" fill="#eca1a6" opacity=".75" class="rects" rx="8.75"/><rect width="35" height="35" x="280" y="140" fill="#eca1a6" opacity=".75" class="rects" rx="8.75"/><rect width="35" height="35" x="280" y="175" fill="#eca1a6" opacity=".75" class="rects" rx="8.75"/><rect width="35" height="35" x="280" y="210" fill="#d6cbd3" opacity=".75" class="rects" rx="8.75"/><rect width="35" height="35" x="280" y="245" fill="#bdcebe" opacity=".75" class="rects" rx="8.75"/><rect width="35" height="35" x="280" y="280" fill="#bdcebe" opacity=".75" class="rects" rx="8.75"/><rect width="35" height="35" x="280" y="315" fill="#eca1a6" opacity=".75" class="rects" rx="8.75"/><rect width="35" height="35" x="280" y="350" fill="#d6cbd3" opacity=".1" class="rects" rx="11.66666667"/><rect width="35" height="35" x="280" y="385" fill="#d6cbd3" opacity=".75" class="rects" rx="8.75"/><rect width="35" height="35" x="280" y="420" fill="#d6cbd3" opacity=".75" class="rects" rx="8.75"/><rect width="35" height="35" x="280" y="455" fill="#eca1a6" opacity=".75" class="rects" rx="8.75"/><rect width="35" height="35" x="280" y="490" fill="#eca1a6" opacity=".75" class="rects" rx="8.75"/><rect width="35" height="35" x="280" y="525" fill="#bdcebe" opacity=".75" class="rects" rx="8.75"/><rect width="35" height="35" x="280" y="560" fill="#bdcebe" opacity=".75" class="rects" rx="8.75"/><rect width="35" height="35" x="280" y="595" fill="#ada397" opacity=".75" class="rects" rx="8.75"/><rect width="35" height="35" x="280" y="630" fill="#d6cbd3" opacity=".1" class="rects" rx="11.66666667"/><rect width="35" height="35" x="280" y="665" fill="#d6cbd3" opacity=".1" class="rects" rx="11.66666667"/><rect width="35" height="35" x="315" fill="#ada397" opacity=".75" class="rects" rx="8.75"/><rect width="35" height="35" x="315" y="35" fill="#d6cbd3" opacity=".1" class="rects" rx="11.66666667"/><rect width="35" height="35" x="315" y="70" fill="#d6cbd3" opacity=".1" class="rects" rx="11.66666667"/><rect width="35" height="35" x="315" y="105" fill="#d6cbd3" opacity=".1" class="rects" rx="11.66666667"/><rect width="35" height="35" x="315" y="140" fill="#ada397" opacity=".75" class="rects" rx="8.75"/><rect width="35" height="35" x="315" y="175" fill="#d6cbd3" opacity=".75" class="rects" rx="8.75"/><rect width="35" height="35" x="315" y="210" fill="#eca1a6" opacity=".75" class="rects" rx="8.75"/><rect width="35" height="35" x="315" y="245" fill="#bdcebe" opacity=".75" class="rects" rx="8.75"/><rect width="35" height="35" x="315" y="280" fill="#bdcebe" opacity=".75" class="rects" rx="8.75"/><rect width="35" height="35" x="315" y="315" fill="#d6cbd3" opacity=".1" class="rects" rx="11.66666667"/><rect width="35" height="35" x="315" y="350" fill="#d6cbd3" opacity=".1" class="rects" rx="11.66666667"/><rect width="35" height="35" x="315" y="385" fill="#d6cbd3" opacity=".75" class="rects" rx="8.75"/><rect width="35" height="35" x="315" y="420" fill="#bdcebe" opacity=".75" class="rects" rx="8.75"/><rect width="35" height="35" x="315" y="455" fill="#d6cbd3" opacity=".75" class="rects" rx="8.75"/><rect width="35" height="35" x="315" y="490" fill="#d6cbd3" opacity=".1" class="rects" rx="11.66666667"/><rect width="35" height="35" x="315" y="525" fill="#ada397" opacity=".75" class="rects" rx="8.75"/><rect width="35" height="35" x="315" y="560" fill="#d6cbd3" opacity=".1" class="rects" rx="11.66666667"/><rect width="35" height="35" x="315" y="595" fill="#bdcebe" opacity=".75" class="rects" rx="8.75"/><rect width="35" height="35" x="315" y="630" fill="#ada397" opacity=".75" class="rects" rx="8.75"/><rect width="35" height="35" x="315" y="665" fill="#d6cbd3" opacity=".1" class="rects" rx="11.66666667"/><rect width="35" height="35" x="350" fill="#ada397" opacity=".75" class="rects" rx="8.75"/><rect width="35" height="35" x="350" y="35" fill="#d6cbd3" opacity=".1" class="rects" rx="11.66666667"/><rect width="35" height="35" x="350" y="70" fill="#d6cbd3" opacity=".1" class="rects" rx="11.66666667"/><rect width="35" height="35" x="350" y="105" fill="#bdcebe" opacity=".75" class="rects" rx="8.75"/><rect width="35" height="35" x="350" y="140" fill="#d6cbd3" opacity=".1" class="rects" rx="11.66666667"/><rect width="35" height="35" x="350" y="175" fill="#d6cbd3" opacity=".1" class="rects" rx="11.66666667"/><rect width="35" height="35" x="350" y="210" fill="#d6cbd3" opacity=".75" class="rects" rx="8.75"/><rect width="35" height="35" x="350" y="245" fill="#ada397" opacity=".75" class="rects" rx="8.75"/><rect width="35" height="35" x="350" y="280" fill="#ada397" opacity=".75" class="rects" rx="8.75"/><rect width="35" height="35" x="350" y="315" fill="#eca1a6" opacity=".75" class="rects" rx="8.75"/><rect width="35" height="35" x="350" y="350" fill="#eca1a6" opacity=".75" class="rects" rx="8.75"/><rect width="35" height="35" x="350" y="385" fill="#bdcebe" opacity=".75" class="rects" rx="8.75"/><rect width="35" height="35" x="350" y="420" fill="#d6cbd3" opacity=".1" class="rects" rx="11.66666667"/><rect width="35" height="35" x="350" y="455" fill="#d6cbd3" opacity=".1" class="rects" rx="11.66666667"/><rect width="35" height="35" x="350" y="490" fill="#d6cbd3" opacity=".1" class="rects" rx="11.66666667"/><rect width="35" height="35" x="350" y="525" fill="#ada397" opacity=".75" class="rects" rx="8.75"/><rect width="35" height="35" x="350" y="560" fill="#d6cbd3" opacity=".75" class="rects" rx="8.75"/><rect width="35" height="35" x="350" y="595" fill="#eca1a6" opacity=".75" class="rects" rx="8.75"/><rect width="35" height="35" x="350" y="630" fill="#d6cbd3" opacity=".1" class="rects" rx="11.66666667"/><rect width="35" height="35" x="350" y="665" fill="#bdcebe" opacity=".75" class="rects" rx="8.75"/><rect width="35" height="35" x="385" fill="#d6cbd3" opacity=".75" class="rects" rx="8.75"/><rect width="35" height="35" x="385" y="35" fill="#d6cbd3" opacity=".1" class="rects" rx="11.66666667"/><rect width="35" height="35" x="385" y="70" fill="#d6cbd3" opacity=".1" class="rects" rx="11.66666667"/><rect width="35" height="35" x="385" y="105" fill="#d6cbd3" opacity=".1" class="rects" rx="11.66666667"/><rect width="35" height="35" x="385" y="140" fill="#eca1a6" opacity=".75" class="rects" rx="8.75"/><rect width="35" height="35" x="385" y="175" fill="#d6cbd3" opacity=".1" class="rects" rx="11.66666667"/><rect width="35" height="35" x="385" y="210" fill="#d6cbd3" opacity=".1" class="rects" rx="11.66666667"/><rect width="35" height="35" x="385" y="245" fill="#ada397" opacity=".75" class="rects" rx="8.75"/><rect width="35" height="35" x="385" y="280" fill="#bdcebe" opacity=".75" class="rects" rx="8.75"/><rect width="35" height="35" x="385" y="315" fill="#ada397" opacity=".75" class="rects" rx="8.75"/><rect width="35" height="35" x="385" y="350" fill="#ada397" opacity=".75" class="rects" rx="8.75"/><rect width="35" height="35" x="385" y="385" fill="#d6cbd3" opacity=".1" class="rects" rx="11.66666667"/><rect width="35" height="35" x="385" y="420" fill="#eca1a6" opacity=".75" class="rects" rx="8.75"/><rect width="35" height="35" x="385" y="455" fill="#d6cbd3" opacity=".1" class="rects" rx="11.66666667"/><rect width="35" height="35" x="385" y="490" fill="#d6cbd3" opacity=".1" class="rects" rx="11.66666667"/><rect width="35" height="35" x="385" y="525" fill="#d6cbd3" opacity=".1" class="rects" rx="11.66666667"/><rect width="35" height="35" x="385" y="560" fill="#ada397" opacity=".75" class="rects" rx="8.75"/><rect width="35" height="35" x="385" y="595" fill="#d6cbd3" opacity=".75" class="rects" rx="8.75"/><rect width="35" height="35" x="385" y="630" fill="#d6cbd3" opacity=".1" class="rects" rx="11.66666667"/><rect width="35" height="35" x="385" y="665" fill="#ada397" opacity=".75" class="rects" rx="8.75"/><rect width="35" height="35" x="420" fill="#ada397" opacity=".75" class="rects" rx="8.75"/><rect width="35" height="35" x="420" y="35" fill="#d6cbd3" opacity=".75" class="rects" rx="8.75"/><rect width="35" height="35" x="420" y="70" fill="#d6cbd3" opacity=".1" class="rects" rx="11.66666667"/><rect width="35" height="35" x="420" y="105" fill="#eca1a6" opacity=".75" class="rects" rx="8.75"/><rect width="35" height="35" x="420" y="140" fill="#ada397" opacity=".75" class="rects" rx="8.75"/><rect width="35" height="35" x="420" y="175" fill="#bdcebe" opacity=".75" class="rects" rx="8.75"/><rect width="35" height="35" x="420" y="210" fill="#bdcebe" opacity=".75" class="rects" rx="8.75"/><rect width="35" height="35" x="420" y="245" fill="#bdcebe" opacity=".75" class="rects" rx="8.75"/><rect width="35" height="35" x="420" y="280" fill="#d6cbd3" opacity=".1" class="rects" rx="11.66666667"/><rect width="35" height="35" x="420" y="315" fill="#d6cbd3" opacity=".75" class="rects" rx="8.75"/><rect width="35" height="35" x="420" y="350" fill="#bdcebe" opacity=".75" class="rects" rx="8.75"/><rect width="35" height="35" x="420" y="385" fill="#eca1a6" opacity=".75" class="rects" rx="8.75"/><rect width="35" height="35" x="420" y="420" fill="#d6cbd3" opacity=".1" class="rects" rx="11.66666667"/><rect width="35" height="35" x="420" y="455" fill="#ada397" opacity=".75" class="rects" rx="8.75"/><rect width="35" height="35" x="420" y="490" fill="#d6cbd3" opacity=".1" class="rects" rx="11.66666667"/><rect width="35" height="35" x="420" y="525" fill="#d6cbd3" opacity=".75" class="rects" rx="8.75"/><rect width="35" height="35" x="420" y="560" fill="#bdcebe" opacity=".75" class="rects" rx="8.75"/><rect width="35" height="35" x="420" y="595" fill="#ada397" opacity=".75" class="rects" rx="8.75"/><rect width="35" height="35" x="420" y="630" fill="#d6cbd3" opacity=".1" class="rects" rx="11.66666667"/><rect width="35" height="35" x="420" y="665" fill="#d6cbd3" opacity=".1" class="rects" rx="11.66666667"/><rect width="35" height="35" x="455" fill="#bdcebe" opacity=".75" class="rects" rx="8.75"/><rect width="35" height="35" x="455" y="35" fill="#d6cbd3" opacity=".1" class="rects" rx="11.66666667"/><rect width="35" height="35" x="455" y="70" fill="#d6cbd3" opacity=".1" class="rects" rx="11.66666667"/><rect width="35" height="35" x="455" y="105" fill="#bdcebe" opacity=".75" class="rects" rx="8.75"/><rect width="35" height="35" x="455" y="140" fill="#bdcebe" opacity=".75" class="rects" rx="8.75"/><rect width="35" height="35" x="455" y="175" fill="#d6cbd3" opacity=".1" class="rects" rx="11.66666667"/><rect width="35" height="35" x="455" y="210" fill="#d6cbd3" opacity=".1" class="rects" rx="11.66666667"/><rect width="35" height="35" x="455" y="245" fill="#d6cbd3" opacity=".1" class="rects" rx="11.66666667"/><rect width="35" height="35" x="455" y="280" fill="#eca1a6" opacity=".75" class="rects" rx="8.75"/><rect width="35" height="35" x="455" y="315" fill="#ada397" opacity=".75" class="rects" rx="8.75"/><rect width="35" height="35" x="455" y="350" fill="#d6cbd3" opacity=".75" class="rects" rx="8.75"/><rect width="35" height="35" x="455" y="385" fill="#d6cbd3" opacity=".1" class="rects" rx="11.66666667"/><rect width="35" height="35" x="455" y="420" fill="#ada397" opacity=".75" class="rects" rx="8.75"/><rect width="35" height="35" x="455" y="455" fill="#ada397" opacity=".75" class="rects" rx="8.75"/><rect width="35" height="35" x="455" y="490" fill="#eca1a6" opacity=".75" class="rects" rx="8.75"/><rect width="35" height="35" x="455" y="525" fill="#d6cbd3" opacity=".1" class="rects" rx="11.66666667"/><rect width="35" height="35" x="455" y="560" fill="#eca1a6" opacity=".75" class="rects" rx="8.75"/><rect width="35" height="35" x="455" y="595" fill="#ada397" opacity=".75" class="rects" rx="8.75"/><rect width="35" height="35" x="455" y="630" fill="#d6cbd3" opacity=".1" class="rects" rx="11.66666667"/><rect width="35" height="35" x="455" y="665" fill="#d6cbd3" opacity=".1" class="rects" rx="11.66666667"/><rect width="35" height="35" x="490" fill="#eca1a6" opacity=".75" class="rects" rx="8.75"/><rect width="35" height="35" x="490" y="35" fill="#ada397" opacity=".75" class="rects" rx="8.75"/><rect width="35" height="35" x="490" y="70" fill="#d6cbd3" opacity=".1" class="rects" rx="11.66666667"/><rect width="35" height="35" x="490" y="105" fill="#eca1a6" opacity=".75" class="rects" rx="8.75"/><rect width="35" height="35" x="490" y="140" fill="#ada397" opacity=".75" class="rects" rx="8.75"/><rect width="35" height="35" x="490" y="175" fill="#eca1a6" opacity=".75" class="rects" rx="8.75"/><rect width="35" height="35" x="490" y="210" fill="#ada397" opacity=".75" class="rects" rx="8.75"/><rect width="35" height="35" x="490" y="245" fill="#ada397" opacity=".75" class="rects" rx="8.75"/><rect width="35" height="35" x="490" y="280" fill="#bdcebe" opacity=".75" class="rects" rx="8.75"/><rect width="35" height="35" x="490" y="315" fill="#d6cbd3" opacity=".1" class="rects" rx="11.66666667"/><rect width="35" height="35" x="490" y="350" fill="#d6cbd3" opacity=".1" class="rects" rx="11.66666667"/><rect width="35" height="35" x="490" y="385" fill="#d6cbd3" opacity=".1" class="rects" rx="11.66666667"/><rect width="35" height="35" x="490" y="420" fill="#bdcebe" opacity=".75" class="rects" rx="8.75"/><rect width="35" height="35" x="490" y="455" fill="#bdcebe" opacity=".75" class="rects" rx="8.75"/><rect width="35" height="35" x="490" y="490" fill="#ada397" opacity=".75" class="rects" rx="8.75"/><rect width="35" height="35" x="490" y="525" fill="#d6cbd3" opacity=".75" class="rects" rx="8.75"/><rect width="35" height="35" x="490" y="560" fill="#d6cbd3" opacity=".1" class="rects" rx="11.66666667"/><rect width="35" height="35" x="490" y="595" fill="#ada397" opacity=".75" class="rects" rx="8.75"/><rect width="35" height="35" x="490" y="630" fill="#d6cbd3" opacity=".1" class="rects" rx="11.66666667"/><rect width="35" height="35" x="490" y="665" fill="#bdcebe" opacity=".75" class="rects" rx="8.75"/><rect width="35" height="35" x="525" fill="#ada397" opacity=".75" class="rects" rx="8.75"/><rect width="35" height="35" x="525" y="35" fill="#d6cbd3" opacity=".75" class="rects" rx="8.75"/><rect width="35" height="35" x="525" y="70" fill="#d6cbd3" opacity=".75" class="rects" rx="8.75"/><rect width="35" height="35" x="525" y="105" fill="#d6cbd3" opacity=".75" class="rects" rx="8.75"/><rect width="35" height="35" x="525" y="140" fill="#bdcebe" opacity=".75" class="rects" rx="8.75"/><rect width="35" height="35" x="525" y="175" fill="#ada397" opacity=".75" class="rects" rx="8.75"/><rect width="35" height="35" x="525" y="210" fill="#d6cbd3" opacity=".1" class="rects" rx="11.66666667"/><rect width="35" height="35" x="525" y="245" fill="#bdcebe" opacity=".75" class="rects" rx="8.75"/><rect width="35" height="35" x="525" y="280" fill="#eca1a6" opacity=".75" class="rects" rx="8.75"/><rect width="35" height="35" x="525" y="315" fill="#bdcebe" opacity=".75" class="rects" rx="8.75"/><rect width="35" height="35" x="525" y="350" fill="#d6cbd3" opacity=".75" class="rects" rx="8.75"/><rect width="35" height="35" x="525" y="385" fill="#d6cbd3" opacity=".75" class="rects" rx="8.75"/><rect width="35" height="35" x="525" y="420" fill="#d6cbd3" opacity=".1" class="rects" rx="11.66666667"/><rect width="35" height="35" x="525" y="455" fill="#eca1a6" opacity=".75" class="rects" rx="8.75"/><rect width="35" height="35" x="525" y="490" fill="#d6cbd3" opacity=".1" class="rects" rx="11.66666667"/><rect width="35" height="35" x="525" y="525" fill="#eca1a6" opacity=".75" class="rects" rx="8.75"/><rect width="35" height="35" x="525" y="560" fill="#bdcebe" opacity=".75" class="rects" rx="8.75"/><rect width="35" height="35" x="525" y="595" fill="#eca1a6" opacity=".75" class="rects" rx="8.75"/><rect width="35" height="35" x="525" y="630" fill="#ada397" opacity=".75" class="rects" rx="8.75"/><rect width="35" height="35" x="525" y="665" fill="#d6cbd3" opacity=".1" class="rects" rx="11.66666667"/><rect width="35" height="35" x="560" fill="#ada397" opacity=".75" class="rects" rx="8.75"/><rect width="35" height="35" x="560" y="35" fill="#bdcebe" opacity=".75" class="rects" rx="8.75"/><rect width="35" height="35" x="560" y="70" fill="#bdcebe" opacity=".75" class="rects" rx="8.75"/><rect width="35" height="35" x="560" y="105" fill="#d6cbd3" opacity=".1" class="rects" rx="11.66666667"/><rect width="35" height="35" x="560" y="140" fill="#eca1a6" opacity=".75" class="rects" rx="8.75"/><rect width="35" height="35" x="560" y="175" fill="#ada397" opacity=".75" class="rects" rx="8.75"/><rect width="35" height="35" x="560" y="210" fill="#bdcebe" opacity=".75" class="rects" rx="8.75"/><rect width="35" height="35" x="560" y="245" fill="#d6cbd3" opacity=".1" class="rects" rx="11.66666667"/><rect width="35" height="35" x="560" y="280" fill="#d6cbd3" opacity=".75" class="rects" rx="8.75"/><rect width="35" height="35" x="560" y="315" fill="#d6cbd3" opacity=".1" class="rects" rx="11.66666667"/><rect width="35" height="35" x="560" y="350" fill="#d6cbd3" opacity=".1" class="rects" rx="11.66666667"/><rect width="35" height="35" x="560" y="385" fill="#d6cbd3" opacity=".1" class="rects" rx="11.66666667"/><rect width="35" height="35" x="560" y="420" fill="#d6cbd3" opacity=".1" class="rects" rx="11.66666667"/><rect width="35" height="35" x="560" y="455" fill="#d6cbd3" opacity=".75" class="rects" rx="8.75"/><rect width="35" height="35" x="560" y="490" fill="#ada397" opacity=".75" class="rects" rx="8.75"/><rect width="35" height="35" x="560" y="525" fill="#d6cbd3" opacity=".75" class="rects" rx="8.75"/><rect width="35" height="35" x="560" y="560" fill="#d6cbd3" opacity=".1" class="rects" rx="11.66666667"/><rect width="35" height="35" x="560" y="595" fill="#d6cbd3" opacity=".1" class="rects" rx="11.66666667"/><rect width="35" height="35" x="560" y="630" fill="#d6cbd3" opacity=".1" class="rects" rx="11.66666667"/><rect width="35" height="35" x="560" y="665" fill="#ada397" opacity=".75" class="rects" rx="8.75"/><rect width="35" height="35" x="595" fill="#bdcebe" opacity=".75" class="rects" rx="8.75"/><rect width="35" height="35" x="595" y="35" fill="#bdcebe" opacity=".75" class="rects" rx="8.75"/><rect width="35" height="35" x="595" y="70" fill="#d6cbd3" opacity=".1" class="rects" rx="11.66666667"/><rect width="35" height="35" x="595" y="105" fill="#d6cbd3" opacity=".1" class="rects" rx="11.66666667"/><rect width="35" height="35" x="595" y="140" fill="#eca1a6" opacity=".75" class="rects" rx="8.75"/><rect width="35" height="35" x="595" y="175" fill="#d6cbd3" opacity=".75" class="rects" rx="8.75"/><rect width="35" height="35" x="595" y="210" fill="#eca1a6" opacity=".75" class="rects" rx="8.75"/><rect width="35" height="35" x="595" y="245" fill="#eca1a6" opacity=".75" class="rects" rx="8.75"/><rect width="35" height="35" x="595" y="280" fill="#bdcebe" opacity=".75" class="rects" rx="8.75"/><rect width="35" height="35" x="595" y="315" fill="#d6cbd3" opacity=".1" class="rects" rx="11.66666667"/><rect width="35" height="35" x="595" y="350" fill="#d6cbd3" opacity=".1" class="rects" rx="11.66666667"/><rect width="35" height="35" x="595" y="385" fill="#d6cbd3" opacity=".1" class="rects" rx="11.66666667"/><rect width="35" height="35" x="595" y="420" fill="#d6cbd3" opacity=".1" class="rects" rx="11.66666667"/><rect width="35" height="35" x="595" y="455" fill="#bdcebe" opacity=".75" class="rects" rx="8.75"/><rect width="35" height="35" x="595" y="490" fill="#eca1a6" opacity=".75" class="rects" rx="8.75"/><rect width="35" height="35" x="595" y="525" fill="#ada397" opacity=".75" class="rects" rx="8.75"/><rect width="35" height="35" x="595" y="560" fill="#d6cbd3" opacity=".1" class="rects" rx="11.66666667"/><rect width="35" height="35" x="595" y="595" fill="#d6cbd3" opacity=".1" class="rects" rx="11.66666667"/><rect width="35" height="35" x="595" y="630" fill="#d6cbd3" opacity=".1" class="rects" rx="11.66666667"/><rect width="35" height="35" x="595" y="665" fill="#d6cbd3" opacity=".1" class="rects" rx="11.66666667"/><rect width="35" height="35" x="630" fill="#d6cbd3" opacity=".1" class="rects" rx="11.66666667"/><rect width="35" height="35" x="630" y="35" fill="#d6cbd3" opacity=".1" class="rects" rx="11.66666667"/><rect width="35" height="35" x="630" y="70" fill="#ada397" opacity=".75" class="rects" rx="8.75"/><rect width="35" height="35" x="630" y="105" fill="#d6cbd3" opacity=".1" class="rects" rx="11.66666667"/><rect width="35" height="35" x="630" y="140" fill="#eca1a6" opacity=".75" class="rects" rx="8.75"/><rect width="35" height="35" x="630" y="175" fill="#d6cbd3" opacity=".1" class="rects" rx="11.66666667"/><rect width="35" height="35" x="630" y="210" fill="#eca1a6" opacity=".75" class="rects" rx="8.75"/><rect width="35" height="35" x="630" y="245" fill="#eca1a6" opacity=".75" class="rects" rx="8.75"/><rect width="35" height="35" x="630" y="280" fill="#d6cbd3" opacity=".75" class="rects" rx="8.75"/><rect width="35" height="35" x="630" y="315" fill="#eca1a6" opacity=".75" class="rects" rx="8.75"/><rect width="35" height="35" x="630" y="350" fill="#d6cbd3" opacity=".1" class="rects" rx="11.66666667"/><rect width="35" height="35" x="630" y="385" fill="#d6cbd3" opacity=".1" class="rects" rx="11.66666667"/><rect width="35" height="35" x="630" y="420" fill="#d6cbd3" opacity=".1" class="rects" rx="11.66666667"/><rect width="35" height="35" x="630" y="455" fill="#d6cbd3" opacity=".75" class="rects" rx="8.75"/><rect width="35" height="35" x="630" y="490" fill="#d6cbd3" opacity=".75" class="rects" rx="8.75"/><rect width="35" height="35" x="630" y="525" fill="#eca1a6" opacity=".75" class="rects" rx="8.75"/><rect width="35" height="35" x="630" y="560" fill="#d6cbd3" opacity=".1" class="rects" rx="11.66666667"/><rect width="35" height="35" x="630" y="595" fill="#d6cbd3" opacity=".1" class="rects" rx="11.66666667"/><rect width="35" height="35" x="630" y="630" fill="#d6cbd3" opacity=".75" class="rects" rx="8.75"/><rect width="35" height="35" x="630" y="665" fill="#d6cbd3" opacity=".1" class="rects" rx="11.66666667"/><rect width="35" height="35" x="665" fill="#d6cbd3" opacity=".1" class="rects" rx="11.66666667"/><rect width="35" height="35" x="665" y="35" fill="#d6cbd3" opacity=".1" class="rects" rx="11.66666667"/><rect width="35" height="35" x="665" y="70" fill="#d6cbd3" opacity=".1" class="rects" rx="11.66666667"/><rect width="35" height="35" x="665" y="105" fill="#d6cbd3" opacity=".1" class="rects" rx="11.66666667"/><rect width="35" height="35" x="665" y="140" fill="#ada397" opacity=".75" class="rects" rx="8.75"/><rect width="35" height="35" x="665" y="175" fill="#eca1a6" opacity=".75" class="rects" rx="8.75"/><rect width="35" height="35" x="665" y="210" fill="#d6cbd3" opacity=".1" class="rects" rx="11.66666667"/><rect width="35" height="35" x="665" y="245" fill="#bdcebe" opacity=".75" class="rects" rx="8.75"/><rect width="35" height="35" x="665" y="280" fill="#eca1a6" opacity=".75" class="rects" rx="8.75"/><rect width="35" height="35" x="665" y="315" fill="#d6cbd3" opacity=".1" class="rects" rx="11.66666667"/><rect width="35" height="35" x="665" y="350" fill="#ada397" opacity=".75" class="rects" rx="8.75"/><rect width="35" height="35" x="665" y="385" fill="#d6cbd3" opacity=".1" class="rects" rx="11.66666667"/><rect width="35" height="35" x="665" y="420" fill="#bdcebe" opacity=".75" class="rects" rx="8.75"/><rect width="35" height="35" x="665" y="455" fill="#d6cbd3" opacity=".1" class="rects" rx="11.66666667"/><rect width="35" height="35" x="665" y="490" fill="#d6cbd3" opacity=".75" class="rects" rx="8.75"/><rect width="35" height="35" x="665" y="525" fill="#d6cbd3" opacity=".1" class="rects" rx="11.66666667"/><rect width="35" height="35" x="665" y="560" fill="#ada397" opacity=".75" class="rects" rx="8.75"/><rect width="35" height="35" x="665" y="595" fill="#d6cbd3" opacity=".1" class="rects" rx="11.66666667"/><rect width="35" height="35" x="665" y="630" fill="#eca1a6" opacity=".75" class="rects" rx="8.75"/><rect width="35" height="35" x="665" y="665" fill="#d6cbd3" opacity=".1" class="rects" rx="11.66666667"/></svg>