<svg xmlns="http://www.w3.org/2000/svg" style="background-color:#000" viewBox="0 0 500 500" fill="#730099" xmlns:v="https://vecta.io/nano"><path d="M65.298 75.4L37.882 38.872l-7.639 40.336 52.956-21.565-61.845 13.613 25.252-54.988-7.64 59.828-24.221 17.192 4.457-74.209L43.39 58.881l-1.934-36.625 21.598 59.432m102.194-8.477l-29.217 15.233 8.885-59.169 47.414 33.704-54.037-10.581 8.472-37.161-5.026 59.792-26.969-11.817-10.903 30.108 14.473-66.307 42.25 42.883-18.09-29.977m70.745-19.389l1.527 42.682 23.161-22.151 13.015-17.327 14.3 49.476 12.642-8.548-32.973-35.388-26.607 62.361 40.563-18.446-21.597 10.256 10.825-22.221-10.21 3.524m139.999-.085l-12.642 8.548-18.641-56.943-31.861 77.02 2.738-70.916 24.662 41.508 6.338-51.935-9.518 64.152 13.977 8.26-12.589-7.815-1.178-40.477-17.822 35.192m127.961-58.729l9.558 60.662-17.132 1.839 8.719-47.279-34.054 46.669 21.478-35.547 13.782 20.702 9.782 4.345-51.41 27.025 67.235-22.134-46.162 17.014-11.906-66.745M40.354 176.541l-7.345-38.1 4.266 45.006 45.537-16.162-65.765-37.462 1.262 61.814 46.131-11.46-50.499-17.549 22.662 2.776 29.081.356-19.078-49.492 2.708-3.74m104.249 67.681l-8.481-28.679-28.035-21.708 42.709 47.103-22.726-4.241 13.429-44.935-32.668 45.158 16.289-43.327-15.771 62.056 66.609-37.286-44.318 32.952 6.166-72.066m124.487 57.511l-62.461 23.195 31.809-8.639-10.356-8.094 8.076-47.787-23.548 31.791-1.527-42.682 38.42 39.044.039-36.822 8.888 47.145 22.172-4.803-41.306-42.839m114.438-1.684l-38.413 1.8 20.81 30.026-28.258 38.546 35.501-65.815-7.654 13.744 23.539 31.609 5.982-8.014 15.409 4.817-40.827 18.507-11.742-6.582-13.839-4.789m131.045-37.665l-35.276-7.366 59.078 43.356-29.156-11.057 9.607-38.938-19.524 54.211-28.93 20.504 11.523-34.255 70.146-8.862-26.046 18.839-12.493-48.313-6.025 51.664M37.03 272.685l46.169-15.041-66.152-27.821 33.901-6.088-42.156 72.207 59.442-32.89-28.196-34.923-3.434 37.276-18.813 7.503 14.388 4.055 13.357-51.834 22.467 53.397m62.86-3.464l3.217-45.482 12.686-14.344 21.238 63.289-56.217-5.153-.89 9.636 31.089 2.782 26.248-22.739 9.037 5.758-30.556-6.072-29.618-30.725 34.606-9.26m109.743 41.167l6.558 14.606-17.158-60.416-10.808 10.019.562 59.174 7.023-67.423-41.329 57.208 35.852-13.208 43.602-8.944-50.012 20.558-20.99 17.794-2.572-63.897m180.157 33.589l-50.234-1.289-32.918 24.612 2.996-56.91 57.692 44.868-28.126.771-7.66-45.449 3.195 53.866 13.184-55.697 2.484 56.606-3.629-71.828-35.373 50.1m126.895-36.227l-8.903 39.799 8.934-37.488 19.508 44.066-23.957 6.025 50.963-12.662-74.301 4.422 1.666 22.724 43.69-12.647-41.339-48.629 34.567 27.562.9-44.758M58.486 382.83l-13.182-9.453 39.614-19.027-19.67 18.86-52.168-2.648L9.178 386.3l33.349-72.906-9.517 25.045-9.958-9.083 30.343-13.957-16.791 50.004 3.996 21.898m118.272-14.111l-47.318-39.653 22.525-3.957 4.057 45.931 27.111-2.3-56.457 22.731 29.93-30.608 12.943-5.76-4.041-39.695-40.71 53.061 48.114-46.333 33.74 38.023m88.504 4.179l-41.239 19.635 23.698-10.612-21.839-13.083 7.19-13.219 1.248-28.843-37.151 63.614 36.358-61.173 1.914 11.628 22.416 37.502-46.815-44.9-15.068 34.722m122.507 25.89l27.947-9.329-6.732-57.889 37.064 41.878-37.819-40.895-32.638 67.902-6.473-16.075 20.097-9.36 8.104-38.073 2.495 26.11 25.701 8.813-56.059-33.661M465.298 375.4l-48.251-45.578 42.683 48.01-13.123-61.564-6.569 11.86 37.233 40.681-36.916 7.731 6.412-61.304-35.039 68.356 36.374-22.368-16.992 24.598-9.754-14.567M59.73 477.832l-18.893-51.43-.483 50.138-8.175.422-14.388-4.055 34.774-58.091 30.248 52.468-41.945-38.571 1.228 32.977-15.481-33.983 33.76 45.073-51.197 13.522m141.281-58.552l-6.572 10.658 4.598-26.464-26.819 18.926 16.628 21.528 27.391 13.363-35.441 13.448 8.723-3.113 20.763 1.737-41.42 13.804-11.396-18.696 75.849-7.846m48.1 9.967l8.104 1.034 7.799-60.859 18.482 57.974-51.888 21.588 63.91-25.99-64.026-48.279 38.458 2.221-37.762 39.876 28.205 1.251 25.858 14.646-24.117-40.117m98.21 23.282l-23.787 29.947-4.368-29.008 22.231 5.415-3.782-25.455-9.339-13.229 30.511 50.851 25.397-24.407-27.257-33.051-5.324 2.125 21.854 38.175-27.634 24.251m63.271 6.017l84.899-28.69-52.349 14.174 18.609-52.197-6.543-14.664-1.034 24.813-10.421 35.928-16.997-53.022-8.196 55.898 47.92 1.365-17.66-15.236 12.537 9.659"/></svg>